<mxfile host="app.diagrams.net" agent="Mozilla/5.0 (Windows NT 10.0; Win64; x64) AppleWebKit/537.36 (KHTML, like Gecko) Chrome/138.0.0.0 Safari/537.36" version="27.2.0">
  <diagram name="Page-1" id="d4mV5vjLy7-fJ8j3acbb">
    <mxGraphModel dx="969" dy="488" grid="1" gridSize="10" guides="1" tooltips="1" connect="1" arrows="1" fold="1" page="1" pageScale="1" pageWidth="850" pageHeight="1100" math="0" shadow="0">
      <root>
        <mxCell id="0" />
        <mxCell id="1" parent="0" />
        <mxCell id="NYBkt1ag6l472hBsgpzE-1" value="Activity diagram pengisian kuisioner (pretest/posttest)" style="swimlane;childLayout=stackLayout;resizeParent=1;resizeParentMax=0;startSize=20;html=1;" vertex="1" parent="1">
          <mxGeometry x="410" y="90" width="560" height="680" as="geometry" />
        </mxCell>
        <mxCell id="NYBkt1ag6l472hBsgpzE-2" value="tim peneliti" style="swimlane;startSize=20;html=1;" vertex="1" parent="NYBkt1ag6l472hBsgpzE-1">
          <mxGeometry y="20" width="290" height="660" as="geometry" />
        </mxCell>
        <mxCell id="NYBkt1ag6l472hBsgpzE-33" value="" style="ellipse;html=1;shape=startState;fillColor=#000000;strokeColor=#ff0000;" vertex="1" parent="NYBkt1ag6l472hBsgpzE-2">
          <mxGeometry x="130" y="40" width="30" height="30" as="geometry" />
        </mxCell>
        <mxCell id="NYBkt1ag6l472hBsgpzE-34" value="" style="edgeStyle=orthogonalEdgeStyle;html=1;verticalAlign=bottom;endArrow=open;endSize=8;strokeColor=#ff0000;rounded=0;" edge="1" source="NYBkt1ag6l472hBsgpzE-33" parent="NYBkt1ag6l472hBsgpzE-2">
          <mxGeometry relative="1" as="geometry">
            <mxPoint x="145" y="100" as="targetPoint" />
          </mxGeometry>
        </mxCell>
        <mxCell id="NYBkt1ag6l472hBsgpzE-35" value="buka halaman pasien" style="rounded=1;whiteSpace=wrap;html=1;arcSize=40;fontColor=#000000;fillColor=#ffffc0;strokeColor=#ff0000;" vertex="1" parent="NYBkt1ag6l472hBsgpzE-2">
          <mxGeometry x="85" y="100" width="120" height="40" as="geometry" />
        </mxCell>
        <mxCell id="NYBkt1ag6l472hBsgpzE-36" value="" style="edgeStyle=orthogonalEdgeStyle;html=1;verticalAlign=bottom;endArrow=open;endSize=8;strokeColor=#ff0000;rounded=0;" edge="1" parent="NYBkt1ag6l472hBsgpzE-2">
          <mxGeometry relative="1" as="geometry">
            <mxPoint x="145" y="170" as="targetPoint" />
            <mxPoint x="144.99999999999977" y="139" as="sourcePoint" />
          </mxGeometry>
        </mxCell>
        <mxCell id="NYBkt1ag6l472hBsgpzE-37" value="pilih pasien yang akan dilakukan pengisian kuisioner (pretest/posttest)" style="rounded=1;whiteSpace=wrap;html=1;arcSize=40;fontColor=#000000;fillColor=#ffffc0;strokeColor=#ff0000;" vertex="1" parent="NYBkt1ag6l472hBsgpzE-2">
          <mxGeometry x="35" y="170" width="220" height="40" as="geometry" />
        </mxCell>
        <mxCell id="NYBkt1ag6l472hBsgpzE-57" style="edgeStyle=orthogonalEdgeStyle;rounded=0;orthogonalLoop=1;jettySize=auto;html=1;exitX=0.5;exitY=1;exitDx=0;exitDy=0;entryX=0.5;entryY=0;entryDx=0;entryDy=0;strokeColor=#FF0000;" edge="1" parent="NYBkt1ag6l472hBsgpzE-2" source="NYBkt1ag6l472hBsgpzE-41" target="NYBkt1ag6l472hBsgpzE-51">
          <mxGeometry relative="1" as="geometry" />
        </mxCell>
        <mxCell id="NYBkt1ag6l472hBsgpzE-41" value="isi kuisioner" style="rounded=1;whiteSpace=wrap;html=1;arcSize=40;fontColor=#000000;fillColor=#ffffc0;strokeColor=#ff0000;" vertex="1" parent="NYBkt1ag6l472hBsgpzE-2">
          <mxGeometry x="85" y="240" width="120" height="40" as="geometry" />
        </mxCell>
        <mxCell id="NYBkt1ag6l472hBsgpzE-51" value="" style="rhombus;whiteSpace=wrap;html=1;fontColor=#000000;fillColor=#ffffc0;strokeColor=#ff0000;" vertex="1" parent="NYBkt1ag6l472hBsgpzE-2">
          <mxGeometry x="135" y="320" width="20" height="20" as="geometry" />
        </mxCell>
        <mxCell id="NYBkt1ag6l472hBsgpzE-69" style="edgeStyle=orthogonalEdgeStyle;rounded=0;orthogonalLoop=1;jettySize=auto;html=1;exitX=0.5;exitY=1;exitDx=0;exitDy=0;entryX=0.5;entryY=0;entryDx=0;entryDy=0;strokeColor=#FF0000;" edge="1" parent="NYBkt1ag6l472hBsgpzE-2" source="NYBkt1ag6l472hBsgpzE-65" target="NYBkt1ag6l472hBsgpzE-68">
          <mxGeometry relative="1" as="geometry" />
        </mxCell>
        <mxCell id="NYBkt1ag6l472hBsgpzE-65" value="lihat hasil" style="rounded=1;whiteSpace=wrap;html=1;arcSize=40;fontColor=#000000;fillColor=#ffffc0;strokeColor=#ff0000;" vertex="1" parent="NYBkt1ag6l472hBsgpzE-2">
          <mxGeometry x="107.5" y="540" width="75" height="30" as="geometry" />
        </mxCell>
        <mxCell id="NYBkt1ag6l472hBsgpzE-68" value="" style="ellipse;html=1;shape=endState;fillColor=#000000;strokeColor=#ff0000;" vertex="1" parent="NYBkt1ag6l472hBsgpzE-2">
          <mxGeometry x="130" y="610" width="30" height="30" as="geometry" />
        </mxCell>
        <mxCell id="NYBkt1ag6l472hBsgpzE-20" value="SIstem" style="swimlane;startSize=20;html=1;" vertex="1" parent="NYBkt1ag6l472hBsgpzE-1">
          <mxGeometry x="290" y="20" width="270" height="660" as="geometry" />
        </mxCell>
        <mxCell id="NYBkt1ag6l472hBsgpzE-38" value="" style="edgeStyle=elbowEdgeStyle;html=1;verticalAlign=bottom;endArrow=open;endSize=8;strokeColor=#ff0000;rounded=0;entryX=0;entryY=0.5;entryDx=0;entryDy=0;" edge="1" source="NYBkt1ag6l472hBsgpzE-37" parent="1" target="NYBkt1ag6l472hBsgpzE-39">
          <mxGeometry relative="1" as="geometry">
            <mxPoint x="1400" y="360" as="targetPoint" />
          </mxGeometry>
        </mxCell>
        <mxCell id="NYBkt1ag6l472hBsgpzE-43" style="edgeStyle=orthogonalEdgeStyle;rounded=0;orthogonalLoop=1;jettySize=auto;html=1;entryX=1;entryY=0.5;entryDx=0;entryDy=0;exitX=0.5;exitY=1;exitDx=0;exitDy=0;strokeColor=#FF0000;" edge="1" parent="1" source="NYBkt1ag6l472hBsgpzE-39" target="NYBkt1ag6l472hBsgpzE-41">
          <mxGeometry relative="1" as="geometry">
            <mxPoint x="1810" y="310" as="sourcePoint" />
          </mxGeometry>
        </mxCell>
        <mxCell id="NYBkt1ag6l472hBsgpzE-39" value="menampikan halaman pengisian kuisioner soal ke-1" style="rounded=1;whiteSpace=wrap;html=1;arcSize=40;fontColor=#000000;fillColor=#ffffc0;strokeColor=#ff0000;" vertex="1" parent="1">
          <mxGeometry x="778" y="160" width="170" height="40" as="geometry" />
        </mxCell>
        <mxCell id="NYBkt1ag6l472hBsgpzE-49" style="edgeStyle=orthogonalEdgeStyle;rounded=0;orthogonalLoop=1;jettySize=auto;html=1;exitX=0.5;exitY=1;exitDx=0;exitDy=0;entryX=0.5;entryY=0;entryDx=0;entryDy=0;strokeColor=#FF0000;" edge="1" parent="1" source="NYBkt1ag6l472hBsgpzE-44" target="NYBkt1ag6l472hBsgpzE-46">
          <mxGeometry relative="1" as="geometry" />
        </mxCell>
        <mxCell id="NYBkt1ag6l472hBsgpzE-44" value="simpan Jawaban" style="rounded=1;whiteSpace=wrap;html=1;arcSize=40;fontColor=#000000;fillColor=#ffffc0;strokeColor=#ff0000;" vertex="1" parent="1">
          <mxGeometry x="798" y="380" width="120" height="40" as="geometry" />
        </mxCell>
        <mxCell id="NYBkt1ag6l472hBsgpzE-62" style="edgeStyle=orthogonalEdgeStyle;rounded=0;orthogonalLoop=1;jettySize=auto;html=1;exitX=0.5;exitY=1;exitDx=0;exitDy=0;entryX=0.5;entryY=0;entryDx=0;entryDy=0;strokeColor=#FF0000;" edge="1" parent="1" source="NYBkt1ag6l472hBsgpzE-46" target="NYBkt1ag6l472hBsgpzE-60">
          <mxGeometry relative="1" as="geometry" />
        </mxCell>
        <mxCell id="NYBkt1ag6l472hBsgpzE-70" value="tidak" style="edgeLabel;html=1;align=center;verticalAlign=middle;resizable=0;points=[];" vertex="1" connectable="0" parent="NYBkt1ag6l472hBsgpzE-62">
          <mxGeometry x="-0.1236" relative="1" as="geometry">
            <mxPoint as="offset" />
          </mxGeometry>
        </mxCell>
        <mxCell id="NYBkt1ag6l472hBsgpzE-46" value="cek apakah soal sisa?" style="rhombus;whiteSpace=wrap;html=1;fontColor=#000000;fillColor=#ffffc0;strokeColor=#ff0000;" vertex="1" parent="1">
          <mxGeometry x="818" y="450" width="80" height="80" as="geometry" />
        </mxCell>
        <mxCell id="NYBkt1ag6l472hBsgpzE-64" style="edgeStyle=orthogonalEdgeStyle;rounded=0;orthogonalLoop=1;jettySize=auto;html=1;exitX=0.5;exitY=1;exitDx=0;exitDy=0;entryX=0.5;entryY=0;entryDx=0;entryDy=0;strokeColor=#FF0000;" edge="1" parent="1" source="NYBkt1ag6l472hBsgpzE-60" target="NYBkt1ag6l472hBsgpzE-63">
          <mxGeometry relative="1" as="geometry" />
        </mxCell>
        <mxCell id="NYBkt1ag6l472hBsgpzE-60" value="hitung hasil&amp;nbsp;" style="rounded=1;whiteSpace=wrap;html=1;arcSize=40;fontColor=#000000;fillColor=#ffffc0;strokeColor=#ff0000;" vertex="1" parent="1">
          <mxGeometry x="820.5" y="580" width="75" height="30" as="geometry" />
        </mxCell>
        <mxCell id="NYBkt1ag6l472hBsgpzE-63" value="simpan hasil" style="rounded=1;whiteSpace=wrap;html=1;arcSize=40;fontColor=#000000;fillColor=#ffffc0;strokeColor=#ff0000;" vertex="1" parent="1">
          <mxGeometry x="820.5" y="650" width="75" height="30" as="geometry" />
        </mxCell>
        <mxCell id="NYBkt1ag6l472hBsgpzE-50" style="edgeStyle=elbowEdgeStyle;rounded=0;orthogonalLoop=1;jettySize=auto;html=1;exitX=0;exitY=0.5;exitDx=0;exitDy=0;entryX=0.5;entryY=1;entryDx=0;entryDy=0;elbow=vertical;strokeColor=#FF0000;" edge="1" parent="1" source="NYBkt1ag6l472hBsgpzE-46" target="NYBkt1ag6l472hBsgpzE-51">
          <mxGeometry relative="1" as="geometry">
            <Array as="points">
              <mxPoint x="580" y="490" />
            </Array>
          </mxGeometry>
        </mxCell>
        <mxCell id="NYBkt1ag6l472hBsgpzE-59" value="ya" style="edgeLabel;html=1;align=center;verticalAlign=middle;resizable=0;points=[];" vertex="1" connectable="0" parent="NYBkt1ag6l472hBsgpzE-50">
          <mxGeometry x="-0.5206" y="3" relative="1" as="geometry">
            <mxPoint as="offset" />
          </mxGeometry>
        </mxCell>
        <mxCell id="NYBkt1ag6l472hBsgpzE-58" style="edgeStyle=orthogonalEdgeStyle;rounded=0;orthogonalLoop=1;jettySize=auto;html=1;exitX=1;exitY=0.5;exitDx=0;exitDy=0;strokeColor=#FF0000;entryX=0;entryY=0.5;entryDx=0;entryDy=0;" edge="1" parent="1" source="NYBkt1ag6l472hBsgpzE-51" target="NYBkt1ag6l472hBsgpzE-44">
          <mxGeometry relative="1" as="geometry" />
        </mxCell>
        <mxCell id="NYBkt1ag6l472hBsgpzE-67" style="edgeStyle=orthogonalEdgeStyle;rounded=0;orthogonalLoop=1;jettySize=auto;html=1;entryX=1;entryY=0.5;entryDx=0;entryDy=0;strokeColor=#FF0000;" edge="1" parent="1" source="NYBkt1ag6l472hBsgpzE-63" target="NYBkt1ag6l472hBsgpzE-65">
          <mxGeometry relative="1" as="geometry" />
        </mxCell>
      </root>
    </mxGraphModel>
  </diagram>
</mxfile>
